<?xml version="1.0" standalone="no"?><!DOCTYPE svg PUBLIC "-//W3C//DTD SVG 1.1//EN" "http://www.w3.org/Graphics/SVG/1.1/DTD/svg11.dtd"><svg class="icon" width="200px" height="200.00px" viewBox="0 0 1024 1024" version="1.1" xmlns="http://www.w3.org/2000/svg"><path d="M419.072 642.048c50.176-7.68 100.352-5.376 144.384 13.056l5.376-11.776c-71.168-22.784-160.512-21.76-226.816 14.848l18.944-44.032c-83.712 22.528-139.776 69.888-196.352 118.272 41.216-97.536 130.816-177.408 232.192-206.592l-5.12 16.128c88.832-28.928 186.368-34.56 265.216-21.504l-18.432-24.064 45.312 11.52 29.184-43.52 11.52 53.76 44.544 14.336s-32.512 13.568-30.976 14.336c168.704 69.376 114.688 300.288-45.568 301.312-81.152 0.768-144.128-72.704-141.312-149.248-41.728-26.88-82.944-39.936-132.096-56.832" fill="#C2CCD2" /><path d="M316.416 331.52c0-18.176 5.12-34.56 16.128-46.592 11.008-12.032 26.624-18.944 44.544-20.48 34.304-3.072 69.12-5.12 103.68-5.888l25.344-0.512v292.864l-0.512 25.088-25.344-0.512c-4.352 0-38.4 1.28-44.544 1.536h-0.768l-27.392 2.56v-0.512l-17.152 0.768c-2.304 0-43.264 4.096-45.056 4.608l-28.928 4.608V331.52z m70.912 2.816v-0.512c0.256-5.12 3.072-11.776 8.192-15.616s10.496-4.864 15.616-5.12c0 0 4.608-0.256 9.472-0.512l14.592-1.024v104.448l-12.8 0.768c-7.68 0.512-12.288 0.768-20.736 1.28l-14.592 1.024v-84.736zM944.896 644.096s-34.048-10.496-39.168-12.032c-0.256 0-0.256 0-0.512-0.256-15.36-4.352-29.184-8.192-39.168-11.008l-18.176-4.608c-17.408-4.096-32-12.544-41.984-25.088-9.984-12.544-14.848-28.672-14.848-46.336v-190.208c0-18.688 5.632-35.84 19.2-46.336 8.704-6.912 19.456-9.984 30.72-9.984 5.888 0 12.032 0.768 18.176 2.304 2.304 0.512 8.96 2.304 19.456 5.376 10.24 2.816 23.552 6.656 36.608 10.496 26.368 7.424 51.968 14.848 51.968 14.848l9.984 2.816V463.36l-82.944-25.6-1.28-8.448s-2.304-15.104-4.608-28.928V545.28c0 0.256 0.256 0.768 0.256 1.024 0 0-0.256 0.256 2.304 1.024 0 0 5.376 1.28 8.96 2.304 2.304-9.728 4.608-19.712 4.608-19.968l3.328-14.336 69.376 20.736 0.256 116.992-32.512-8.96z" fill="#C2CCD2" /><path d="M41.728 371.456c0-14.592 6.912-26.624 14.848-34.816 8.192-8.448 17.152-13.568 25.6-16.384 38.144-12.288 91.904-20.48 94.464-20.992l14.592-2.304c6.144-3.328 12.8-6.144 19.712-7.424 18.688-3.84 75.52-14.592 78.08-15.104l29.44-5.632v297.728l-0.512 22.272-22.016 2.56c-1.792 0-43.008 7.168-45.056 7.68l-30.72 6.912v-48.128l-85.504 20.224v29.44l-0.256 19.456-18.688 4.608c-0.256 0-6.656 1.792-13.312 3.84-6.912 2.048-14.592 4.608-20.48 6.4-3.584 1.024-6.656 2.048-6.912 2.304l-33.792 12.288V371.456zM761.856 598.016h-0.512c-0.512 0-1.024-0.256-1.536-0.256-1.28-0.256-3.072-0.512-5.12-1.024-4.096-0.768-9.472-1.536-14.592-2.56-10.24-1.792-21.504-3.584-22.272-3.584l-10.24-1.024-12.032-1.28V271.872l27.136 2.048c2.816 0.256 8.704 1.28 17.408 2.56 8.192 1.28 17.92 3.072 24.576 4.096 4.864 0.768 7.424 1.28 9.728 1.792l18.944 4.864v286.464l-0.256 30.976-31.232-6.656zM665.6 583.936c-2.816-0.512-19.712-2.304-37.632-3.584-16.896-1.28-35.584-2.56-47.616-3.328l-13.056-0.512c-18.176-0.768-34.304-6.4-45.824-18.176-11.264-11.776-16.64-27.904-16.64-46.08v-198.144c0-15.872 4.608-30.464 15.36-40.704 13.568-12.8 30.208-14.08 40.448-14.08 2.816 0 5.12 0 6.912 0.256h3.84c3.584 0 7.936 0.256 14.336 0.512l7.424 0.256-0.256 0.256c7.168 0.512 16.128 1.28 27.648 2.048 38.656 3.072 48.896 4.096 54.784 5.376 2.048 0.256 4.608 1.28 5.376 1.792l14.336 6.912v103.168l-81.92-10.496-2.048-9.472s-2.304-10.496-4.352-19.712c-1.024 0-2.304-0.256-3.584-0.256l0.256 37.632v8.192l5.12-0.256H609.28c2.304 0 5.376 0.256 10.496 0.768 4.864 0.512 11.008 1.024 17.408 1.536 12.8 1.024 26.624 2.56 33.536 3.328 2.048 0.256 3.072 0.256 4.864 0.768l19.712 4.352-0.256 193.28-29.44-5.632z" fill="#C2CCD2" /><path d="M324.608 331.52c-0.512-33.28 20.224-56.32 53.504-58.88 34.048-3.072 68.864-5.12 103.168-5.888l17.152-0.256v284.16l-0.256 17.152-17.152-0.256c-4.352 0-43.264 1.28-46.336 1.792l-18.432 1.792v-111.104c-3.328 0.256-6.4 0.512-9.728 0.768v94.72l-0.256 15.872-15.872 0.768c-3.072 0-43.008 4.096-45.824 4.608l-19.456 3.072-0.512-248.32z m81.92 67.072c3.328-0.256 6.4-0.512 9.728-0.768v-66.304c-2.304 0.256-3.84 0.256-3.584 0.256-3.072 0.256-4.608 0.768-5.12 1.28-0.512 0.512-0.768 0.512-1.024 2.048v63.488zM947.456 636.16s-29.952-9.216-37.888-11.52c-0.768-0.256-1.28-0.256-1.536-0.512h-0.256c-16.896-4.864-32-8.96-42.24-11.776l-15.872-3.84c-32.256-7.424-50.688-30.72-50.432-63.488v-190.208c0-17.408 5.12-31.232 15.872-39.936 7.168-5.632 15.872-8.192 25.6-8.192 5.12 0 10.752 0.768 16.384 2.048 5.376 1.28 107.52 30.464 107.776 30.464l3.84 1.024v112.128l-67.328-20.736-0.512-3.328s-5.12-32.768-7.424-46.592c-4.096-1.28-7.168-2.048-9.216-2.816h-0.256l-1.792-0.512-2.304-0.768V545.28c0 0.512 0.256 2.816 1.28 4.608 1.28 2.304 3.328 4.096 7.424 5.376 0 0 8.96 2.304 17.152 4.608l6.4-28.16 1.28-5.632 55.296 16.64 0.256 100.096-21.504-6.656zM49.92 371.456c0.512-24.32 21.248-39.168 34.816-43.52 37.12-11.776 90.88-20.224 93.44-20.736l16.128-2.56c5.632-3.328 12.032-5.888 18.688-7.424 18.432-3.84 75.264-14.592 77.824-15.104l19.712-3.584v287.744l-0.256 14.848-14.848 1.792c-3.072 0.256-43.008 7.168-45.824 7.936l-20.736 4.608v-232.96h-0.512c-5.888 1.792-6.912 3.072-8.192 9.472v177.152L139.008 568.32v-185.6c-0.512 0.256-1.024 0.256-1.28 0.256-2.816 0.768-5.888 2.304-7.936 3.84-2.048 1.792-2.816 3.072-2.816 5.632V606.72l-0.256 13.056-12.544 3.072c-2.816 0.768-38.656 11.776-41.216 12.8l-22.784 8.448V371.456zM763.648 589.824c-2.816-0.768-42.496-7.168-45.312-7.424l-10.24-1.024-4.864-0.512V280.832l18.176 1.536c4.608 0.512 46.08 7.424 50.432 8.448l12.8 3.328v279.808l-0.256 20.736-20.736-4.864zM667.136 575.744c-7.936-1.536-61.696-5.632-86.016-7.168l-13.312-0.512c-16.896-0.768-30.72-5.888-40.192-15.616-9.472-9.728-14.336-23.808-14.336-40.448v-197.888c0-14.336 4.096-26.368 12.8-34.816 11.008-10.496 25.344-11.776 34.816-11.776 2.56 0 4.864 0 6.656 0.256h3.84c7.168 0 20.224 1.024 48.64 3.072 38.656 3.072 49.152 4.096 53.76 5.12 1.536 0.256 2.816 0.768 3.584 1.28l9.728 4.608v88.832l-67.072-8.704-0.768-3.84s-3.584-15.872-5.632-25.6c-1.28 0-2.56-0.256-3.584-0.256-0.512 0-10.752-0.768-10.752-0.768h-1.536c-1.024 0-1.792 0-2.56 0.256v4.608l0.256 41.728v16.64l13.824-0.512h0.512c3.328 0 17.92 1.28 32.768 2.56 14.848 1.28 28.672 2.816 31.744 3.328l13.056 2.816-0.256 176.896-19.968-4.096z m-71.68-73.216c0 0.256 0.256 2.304 0.768 3.328 0.512 0.768 1.28 1.536 5.12 1.792 0 0 1.792 0 4.096 0.256v-56.32c-3.328-0.256-7.424-0.512-7.424-0.512l-2.816-0.256 0.256 51.712z m-11.264-170.752"  /><path d="M481.28 278.528v-2.816c-34.048 0.768-68.352 2.56-102.4 5.632-28.928 2.56-45.312 20.48-45.056 49.92v237.312l8.96-1.536c2.56-0.512 44.544-4.608 46.848-4.864h7.168V451.584c6.912-0.512 20.48-1.536 28.16-2.048V560.64l8.448-1.024c2.304-0.256 41.216-1.792 46.848-1.792h0.256l5.12 0.256h2.816V275.712l-7.68 0.256 0.512 2.56z m-56.064 43.52v84.48c-6.912 0.512-20.48 1.28-28.16 1.792v-73.728c0.768-5.12 2.56-10.752 14.592-11.776 0 0 7.424-0.512 13.568-0.768M959.744 549.632l-39.168-11.776-0.512 2.816s-4.864 21.504-6.912 30.976c-15.616-4.608-22.528-6.656-26.368-7.424-7.936-2.304-11.52-6.656-13.312-9.984-2.048-3.84-2.304-7.936-2.304-8.96v-168.96c0-0.768 0.256-4.352 1.536-6.144 0.768-1.28 2.048-1.792 4.608-1.792 1.28 0 3.072 0.256 5.12 0.768H883.2c0.512 0 7.168 2.048 18.688 5.376 1.536 9.728 7.424 48.128 7.424 48.128l0.256 1.792 49.92 15.36v-92.416l-2.048-0.512s-97.536-27.904-102.656-28.928c-5.12-1.28-9.984-2.048-14.336-2.048-7.936 0-14.592 2.048-19.968 6.144-8.448 6.656-12.544 17.92-12.544 32.768v190.208c-0.256 28.416 14.848 47.616 43.008 54.272l0.512 0.256h1.024c3.328 0.512 30.208 7.936 57.344 15.616l39.68 12.032 9.728 3.072 0.512-80.64zM214.784 306.432c-10.24 2.048-19.456 7.424-26.624 14.592V314.88l-8.704 1.28c-2.304 0.256-55.808 8.704-91.904 20.48-11.776 3.84-28.16 16.64-28.416 34.816v259.84l10.24-4.096c2.048-0.768 39.936-12.288 42.24-13.056l3.584-0.768 2.048-0.512v-220.16c0-11.264 10.496-16.128 17.408-18.432 2.304-0.768 7.936-1.792 13.056-2.56v185.088l62.72-14.848v-5.888V371.2c1.536-10.24 5.888-15.104 15.36-17.664h0.256c1.536-0.256 6.656-1.024 11.52-1.792v232.448l9.472-2.304c2.304-0.512 44.544-7.68 47.104-7.936l4.352-0.256 2.56-0.256V289.792l-8.96 1.536c0.256 0-58.88 11.008-77.312 15.104M720.64 291.328l-5.376-0.512-2.816-0.256v281.856l2.56 0.256 4.352 0.512c2.304 0.256 44.288 7.168 46.592 7.68l9.472 2.304V300.8l-5.632-1.536c-3.84-0.768-45.568-7.68-49.152-7.936M609.792 402.944h-0.512l-4.608 0.256h-2.56v39.168l2.56 0.256s5.888 0.512 9.984 0.768v74.752c-6.144-0.512-13.824-1.024-14.08-1.024-6.4-0.512-10.24-2.816-12.544-6.4-1.792-3.072-2.048-6.656-2.048-8.192v-124.928l-0.256-41.472v-4.352c0-2.304 0.512-4.864 2.048-6.656 1.536-1.792 4.608-3.072 9.728-3.072h3.072c1.28 0 8.448 0.512 20.48 1.536 1.792 7.68 6.144 27.904 6.144 27.904l0.512 1.792 50.176 6.4V287.488l-4.352-2.304c-2.048-0.768-4.096-1.536-54.272-5.376-30.208-2.304-42.752-3.072-48.384-3.072h-3.84c-1.792 0-3.84-0.256-6.4-0.256-8.448 0-19.712 1.28-28.16 9.216-6.912 6.4-9.984 16.128-9.984 28.16V512c-0.256 28.928 16.384 46.08 45.568 46.848h1.28c7.424 0 88.064 5.632 99.328 7.68l8.96 1.792 0.256-158.464-5.888-1.28c-4.096-0.768-56.576-5.632-62.208-5.632" fill="#FFFFFF" /><path d="M609.792 435.456c2.56 0.256 12.544 0.768 12.544 0.768v89.856c-7.424-0.512-14.848-1.024-22.016-1.536-10.752-0.768-16.128-5.888-18.432-10.24-2.816-4.864-3.072-9.984-3.072-11.776v-124.928c0-23.808-0.256-41.728-0.256-43.008v-2.816c0-3.072 0.768-7.68 4.096-11.52 3.584-4.096 9.728-6.144 17.92-5.632 0-0.256 12.544 0.768 27.136 2.048l6.656 29.952 36.352 4.864v-58.88c-3.072-1.28-101.632-8.96-101.632-7.936h-1.792c-7.936-0.256-20.736-0.768-28.928 6.912-5.12 4.864-7.68 12.544-7.68 22.784V512c0 25.6 12.8 38.4 38.4 39.424 0-0.768 88.832 5.376 101.632 7.936 0-3.072 0.256-140.032 0.256-143.104-3.072-0.512-57.6-5.632-60.672-5.632v24.832z m-220.16-101.12c0.512-5.12 3.328-17.664 21.504-18.944 7.168-0.512 14.336-1.024 21.504-1.28v99.84c-14.336 0.768-28.928 1.792-43.264 2.816v-82.432z m-48.128-2.816v228.352c3.072-0.512 45.056-4.864 48.128-4.864v-110.336c14.336-1.28 28.928-2.304 43.264-3.072v110.592c3.072-0.256 45.568-1.792 48.64-1.792V283.392c-34.048 0.768-68.096 2.56-101.888 5.632-25.344 2.56-38.144 17.152-38.144 42.496M719.872 565.76c3.072 0.256 44.8 7.168 47.616 7.936V306.944c-2.816-0.768-44.8-7.68-47.616-7.936V565.76zM180.736 352v-28.16s-54.784 8.704-90.88 20.224c-9.472 3.072-23.04 13.824-23.04 27.648v248.832c2.816-1.024 40.192-12.544 43.264-13.312v-214.272c0-15.104 12.288-22.528 22.784-25.6 5.888-1.792 23.04-4.352 23.04-4.352v184.32l47.616-11.264v-165.376c1.536-12.8 8.448-21.504 21.248-24.32 12.032-2.048 20.992-3.328 20.992-3.328V574.464c2.816-0.768 45.312-7.936 48.128-8.192V298.752s-58.88 11.008-77.568 14.848c-17.664 3.84-31.744 18.176-35.584 38.4m771.328 203.264l-26.112-7.68-7.68 33.792c-16.896-5.12-34.048-9.984-34.048-9.728-10.496-2.816-15.616-9.216-18.176-13.824-2.816-5.376-3.072-10.496-3.072-12.544v-0.768V376.32c0-2.048 0.256-6.912 3.072-10.752 2.56-3.328 7.68-6.912 17.92-3.84 0-0.256 11.008 3.072 24.32 6.912l7.68 49.92 35.84 11.008V353.28s-94.208-27.136-98.56-28.16c-24.832-6.144-37.632 4.096-37.632 29.696v190.208c0 25.6 12.8 40.96 37.632 47.104 0-0.512 31.488 8.192 58.88 15.872l39.936 12.032v-64.768z" fill="#0B77BD" /><path d="M609.792 435.456c2.56 0.256 12.544 0.768 12.544 0.768v89.856c-7.424-0.512-14.848-1.024-22.016-1.536-10.752-0.768-16.128-5.888-18.688-10.24-2.816-4.864-3.072-9.984-3.072-11.776v-124.928c0-23.808-0.256-41.728-0.256-43.008v-2.816c0-3.072 0.512-7.68 3.84-11.52 3.584-4.096 9.728-6.144 17.92-5.632 0-0.256 12.544 0.768 27.136 2.048l6.656 29.952 36.352 4.864v-58.88c-3.072-1.28-101.632-8.96-101.632-7.936h-1.792c-7.68-0.256-20.736-0.768-28.928 6.912-5.12 4.864-7.68 12.544-7.68 22.784V512c0 25.344 12.8 38.4 38.4 39.424 0-0.768 88.832 5.376 101.632 7.936 0-3.072 0.256-140.032 0.256-143.104-3.072-0.512-57.6-5.632-60.672-5.632v24.832z m110.08 130.304c3.072 0.256 44.8 7.168 47.616 7.936V306.688c-2.816-0.768-44.8-7.68-47.616-7.936V565.76zM180.736 352v-28.16s-54.784 8.704-90.88 20.224c-9.472 3.072-23.04 13.824-23.04 27.648v248.832c2.816-1.024 40.192-12.544 43.264-13.312v-214.272c0-14.848 12.288-22.528 22.784-25.6 5.888-1.792 23.04-4.352 23.04-4.352v184.32l47.616-11.264v-165.376c1.536-12.8 8.448-21.248 21.248-24.32 12.032-2.048 20.992-3.328 20.992-3.328V574.464c2.816-0.768 45.312-7.936 48.128-8.192V298.752s-59.136 11.008-77.568 14.848c-17.664 3.84-31.744 18.176-35.584 38.4" fill="#0B77BD" /><path d="M363.264 187.648c-1.28-1.536-3.072-2.816-5.12-3.328-1.536-0.512-2.816-0.512-4.352-0.512-2.304 0-4.352 0.256-6.144 0.512-5.12 1.024-10.24 2.048-15.36 2.816-3.84 0.768-7.168 2.048-9.728 3.584-1.792 1.28-3.584 2.816-4.608 4.608-1.28 2.304-2.048 4.864-2.048 7.424v49.664c0 2.56 0.512 5.12 2.048 7.168 1.28 1.536 3.072 2.56 5.12 3.072 1.28 0.256 2.56 0.256 3.584 0.256 2.304 0 4.608-0.512 6.656-0.768 5.12-1.024 10.24-2.048 15.36-2.816 3.84-0.768 7.168-1.792 9.728-3.328 2.048-1.28 3.584-2.56 4.608-4.352 1.536-2.304 2.048-4.864 2.048-7.424V194.816c0.256-2.816-0.256-5.376-1.792-7.168m-16.64 57.6s0 0.512-0.768 1.28c-0.512 0.512-1.536 1.024-3.072 1.28-1.28 0.256-4.096 0.768-6.144 1.28h-1.024c-0.768 0-0.768-0.256-0.768-0.256s0-0.512-0.256-0.512V201.728s0-0.512 0.512-1.28c0.512-0.512 1.536-1.024 3.328-1.536 1.792-0.256 3.584-0.768 5.376-1.024 0.512 0 1.024-0.256 1.28-0.256 0.768 0 1.024 0.256 1.28 0.256 0.256 0 0.256 0.512 0.256 0.512v46.848zM596.736 177.92c-1.28-1.792-2.816-3.072-4.864-4.096-3.584-1.792-7.424-2.304-9.984-2.304-10.24-0.768-20.48-1.28-30.464-1.536h-3.072v75.264h2.816c4.352 0.256 8.96 0.256 13.312 0.512h3.072V183.04c2.048 0 4.096 0.256 6.144 0.256 7.168 0.768 6.144 3.072 6.4 3.84v59.136l2.56 0.256c4.352 0.256 8.704 0.512 13.056 1.024l3.072 0.256v-3.072-59.648c0.256-2.56-0.512-5.12-2.048-7.168M657.408 184.832c-1.28-1.792-2.816-3.328-4.608-4.352-2.816-1.536-5.888-2.56-9.984-3.072-4.096-0.768-24.832-3.072-30.464-3.584l-3.072-0.256v75.52l2.56 0.256c9.984 1.024 20.224 2.304 30.208 3.584 1.792 0.256 3.328 0.256 4.608 0.256 2.048 0 3.84-0.256 5.376-0.768 2.048-0.512 3.84-1.792 5.12-3.328 1.536-2.048 2.304-4.608 2.304-7.168V192.256c0-2.56-0.768-5.12-2.048-7.424M640 238.848c-0.512 0.256-1.536 0.512-2.816 0.512-0.768 0-1.792 0-2.304-0.256l-6.912-0.768V188.416l6.144 0.768c2.048 0.256 3.84 0.768 5.12 1.536 1.024 0.768 1.536 1.28 1.536 3.072v43.264c-0.256 1.536-0.512 1.536-0.768 1.792M425.472 246.528v-25.344c0-2.56-1.536-5.12-3.84-6.656-0.256-0.256-0.512-0.512-1.024-0.512 2.048-1.536 4.352-3.84 4.352-7.936V186.88c0-2.56-0.768-5.12-2.304-7.168-1.28-1.536-3.072-2.816-5.12-3.328-1.792-0.512-3.84-0.768-6.144-0.768-1.28 0-2.56 0-4.096 0.256l-29.952 3.84-2.56 0.256v75.52l3.328-0.512c4.352-0.768 8.704-1.28 13.056-1.792l2.56-0.256V223.488c2.304-0.256 4.352-0.512 6.656-0.768H402.688c1.792 0 2.56 0.256 3.072 0.512 0.512 0.256 0.512 0.768 0.512 1.792v26.112l3.328-0.256c4.352-0.512 8.704-1.024 13.056-1.28l2.56-0.256 0.256-2.816z m-19.2-40.704c0 0.512 0 1.28-1.024 2.304-1.024 0.768-2.816 1.536-5.376 2.048-1.792 0.256-3.84 0.512-5.632 0.768v-20.992c2.048-0.256 4.352-0.512 6.4-0.768 1.024-0.256 2.048-0.256 2.816-0.256 1.792 0 2.56 0.256 2.816 0.512 0.256 0.256 0 0 0.256 0.768V202.752c-0.256 1.536-0.256 2.816-0.256 3.072M477.952 229.376v-9.728l-3.072 0.256-11.52 0.768-4.352 13.312c-1.792 0-3.328 0.256-5.12 0.256V171.264l-3.072 0.256c-4.352 0.256-8.96 0.768-13.312 1.024l-2.56 0.256V248.32l3.072-0.256c12.288-1.024 24.832-1.792 37.12-2.304h2.816v-2.816V229.376zM535.296 169.472c-3.584 0-13.824-0.256-21.76-0.256h-8.96c-4.096 0-7.424 0.512-10.24 1.792-2.048 0.768-3.84 2.304-5.12 3.84-1.536 2.048-2.304 4.608-2.304 7.424v62.72h3.072c4.352 0 8.704-0.256 13.056-0.256h2.816v-28.16h12.8v27.904h2.816c4.352 0 8.96 0 13.312 0.256h3.072V169.472h-2.56z m-16.384 34.56h-12.8V184.32c0-0.256 0-0.768 0.768-1.28 0.768-0.768 2.56-1.28 5.632-1.28h6.4v22.272zM715.776 195.584c-1.024-1.792-2.56-3.328-4.352-4.608-3.328-2.304-7.168-3.072-9.984-3.84l-15.36-3.072c-2.048-0.256-3.84-0.512-5.632-0.512-1.536 0-3.072 0.256-4.608 0.512-2.048 0.512-3.84 1.536-5.12 3.072-1.792 2.304-2.56 4.864-2.56 7.424v49.664c0 2.56 0.512 5.12 2.048 7.424 1.024 1.792 2.816 3.328 4.608 4.352 3.328 2.048 7.168 2.816 9.984 3.328 5.12 1.024 10.24 1.792 15.104 3.072 2.304 0.512 4.352 0.768 6.4 0.768 1.28 0 2.56 0 3.584-0.256 2.048-0.512 4.096-1.536 5.376-3.072 1.536-2.048 2.304-4.352 2.304-7.168V203.008c0-2.56-0.512-5.12-1.792-7.424m-16.64 52.992s0 0.256 0 0v0.256c-0.256 0-0.512 0.256-1.28 0.256-0.512 0-1.024 0-1.536-0.256-1.28-0.256-3.84-0.768-6.144-1.024-1.536-0.256-2.56-1.024-2.816-1.792-0.256-0.512-0.256-1.024-0.256-1.024V198.144c0.256 0 0.512-0.256 1.28-0.256 0.512 0 1.024 0 1.536 0.256 1.792 0.256 3.584 0.768 5.376 1.024 1.536 0.256 2.56 0.768 3.072 1.28 1.024 0.768 0.768 1.536 0.768 1.536v46.592z"  /><path d="M402.944 605.696l9.472-4.608 7.936 6.912-1.536-10.24 8.96-5.376-10.24-1.792-2.304-10.24-4.864 9.216-10.496-1.024 7.424 7.68z" fill="#FFFFFF" /><path d="M721.152 547.072c9.216-4.096 26.624-11.52 26.624-11.52l1.28-0.512-1.28-0.512s-27.904-9.216-33.792-11.008c-1.024-6.4-5.376-36.608-5.376-36.608l-0.256-1.536-10.24 16.384s-5.888 9.472-8.96 14.336c-6.656-1.792-35.328-8.96-35.328-8.96l-1.536-0.512 1.024 1.28s11.776 15.104 18.688 24.32c-28.928-6.4-62.464-9.728-100.608-9.728-12.544 0-25.6 0.256-39.424 1.28-52.224 3.072-103.68 12.8-152.832 30.464l5.632-16.896-1.024 0.256c-77.056 24.064-161.536 96.512-198.912 167.936l0.768 0.512C238.336 656.64 309.76 616.96 373.76 602.624l-16.896 39.168 1.28-0.512c29.696-14.336 68.864-20.736 108.288-20.736 40.448 0 81.152 6.656 112.64 18.176l-12.032 26.368c-28.672-13.056-70.144-22.016-104.704-22.016-6.144 0-12.032 0.256-17.664 0.768v1.024c40.704 11.52 82.688 24.576 116.224 51.2-0.256 2.816-0.256 5.632-0.256 8.448 0 70.4 60.672 134.144 132.096 134.144h1.536c78.592-1.024 136.96-72.96 136.96-148.224-0.256-55.04-31.744-111.872-110.08-143.36"  /><path d="M678.144 676.096c-28.928 0-58.112-10.752-87.296-21.248-7.68 16.128-11.52 33.28-11.52 50.688 0 9.216 1.024 18.432 3.328 27.904h7.168c56.32 0 116.224-15.616 164.352-44.288-5.632-10.24-12.544-19.968-19.712-29.44-18.688 11.776-37.376 16.384-56.32 16.384" fill="#C2CCD2" /><path d="M587.776 744.192h-1.792c17.664 45.568 58.112 75.776 107.264 76.544 15.872-38.912 33.28-81.408 73.216-101.12-2.048-6.912-4.608-13.824-7.424-20.48-51.456 29.952-111.616 45.056-171.264 45.056M709.632 601.344c-17.408-6.656-28.672-8.704-29.696-8.96-4.864 0.768-11.52 1.28-16.896 2.304 29.696 11.776 51.712 26.112 73.728 50.944 11.264-8.96 21.248-19.2 28.16-31.488-20.224-19.712-58.368-43.776-153.6-51.2 40.192 9.472 77.056 22.528 98.56 37.632l-0.256 0.768zM442.88 588.032c5.888 0 12.288-0.256 18.944-0.256 67.584 0 171.776 7.936 212.224 56.064l-0.768 0.768c-14.08-7.68-41.984-20.736-59.392-20.736h-1.536c-5.888 6.656-11.264 13.824-16.128 21.504 27.136 9.984 54.528 19.968 81.408 19.968 17.152 0 34.048-3.84 50.688-14.08-46.848-51.2-126.208-73.472-200.96-73.472-29.44 0.256-58.368 3.584-84.48 10.24M762.624 683.776c13.056-8.96 24.32-18.176 34.56-30.208-6.4-12.288-17.664-26.112-25.6-33.024-7.424 13.056-16.896 24.064-28.672 33.536 7.168 8.96 14.336 19.456 19.712 29.696" fill="#C2CCD2" /><path d="M704.768 820.224c23.808-2.816 45.568-11.008 64-26.624 2.816-10.496 4.096-21.504 4.096-32.256 0-10.496-1.024-20.736-3.072-30.976-35.84 17.152-50.688 55.04-65.024 89.856M783.104 768.256c0 3.584 0 7.168-0.256 10.752 13.824-18.944 21.504-35.328 25.6-59.392-10.24 1.024-20.224 2.56-29.952 5.888 3.328 14.336 4.608 28.416 4.608 42.752M767.744 693.504c3.072 7.168 5.888 14.592 8.448 22.016 11.264-3.584 22.016-5.632 33.536-6.144v-2.56c0-15.36-2.304-27.392-7.424-41.984-10.752 11.008-22.016 20.224-34.56 28.672" fill="#C2CCD2" /><path d="M809.472 709.376c-11.52 0.768-22.528 2.56-33.536 6.144-2.56-7.424-5.12-14.848-8.448-22.016 12.8-8.448 24.064-17.92 34.56-28.672 5.12 14.848 7.168 26.624 7.424 41.984v2.56" fill="#C2CCD2" /><path d="M809.472 709.376c-11.52 0.768-22.528 2.56-33.536 6.144-2.56-7.424-5.12-14.848-8.448-22.016 12.8-8.448 24.064-17.92 34.56-28.672 5.12 14.848 7.168 26.624 7.424 41.984v2.56M771.584 620.288c7.936 7.168 19.2 20.992 25.6 33.024-10.24 12.032-21.504 21.248-34.56 30.208-5.632-9.984-12.8-20.736-19.456-29.696 11.52-9.472 20.992-20.224 28.416-33.536" fill="#C2CCD2" /><path d="M771.584 620.288c7.936 7.168 19.2 20.992 25.6 33.024-10.24 12.032-21.504 21.248-34.56 30.208-5.632-9.984-12.8-20.736-19.456-29.696 11.52-9.472 20.992-20.224 28.416-33.536M611.584 562.688c95.232 7.424 133.376 31.744 153.6 51.2-6.912 12.544-16.896 22.528-28.16 31.488-22.016-24.576-44.032-38.912-73.728-50.944 5.376-1.024 12.032-1.792 16.896-2.304 1.024 0.256 12.288 2.304 29.696 8.96l0.512-1.024c-21.76-15.104-58.624-27.904-98.816-37.376" fill="#C2CCD2" /><path d="M611.584 562.688c95.232 7.424 133.376 31.744 153.6 51.2-6.912 12.544-16.896 22.528-28.16 31.488-22.016-24.576-44.032-38.912-73.728-50.944 5.376-1.024 12.032-1.792 16.896-2.304 1.024 0.256 12.288 2.304 29.696 8.96l0.512-1.024c-21.76-15.104-58.624-27.904-98.816-37.376M589.824 733.184h-7.168c-2.304-9.216-3.328-18.688-3.328-27.904 0-17.408 3.84-34.304 11.52-50.688 29.184 10.752 58.112 21.248 87.296 21.248 18.944 0 37.632-4.608 56.576-16.384 7.168 9.216 14.08 18.944 19.712 29.44-48.384 28.672-108.288 44.288-164.608 44.288" fill="#C2CCD2" /><path d="M589.824 733.184h-7.168c-2.304-9.216-3.328-18.688-3.328-27.904 0-17.408 3.84-34.304 11.52-50.688 29.184 10.752 58.112 21.248 87.296 21.248 18.944 0 37.632-4.608 56.576-16.384 7.168 9.216 14.08 18.944 19.712 29.44-48.384 28.672-108.288 44.288-164.608 44.288" fill="#C2CCD2" /><path d="M693.248 820.736c-49.152-0.768-89.6-30.976-107.264-76.544h1.792c59.648 0 119.552-15.104 171.264-45.312 2.816 6.656 5.376 13.568 7.424 20.48-39.936 19.968-57.6 62.464-73.216 101.376" fill="#C2CCD2" /><path d="M693.248 820.736c-49.152-0.768-89.6-30.976-107.264-76.544h1.792c59.648 0 119.552-15.104 171.264-45.312 2.816 6.656 5.376 13.568 7.424 20.48-39.936 19.968-57.6 62.464-73.216 101.376M782.848 779.008c0.256-3.584 0.256-7.168 0.256-10.752 0-14.336-1.536-28.416-4.608-42.752 9.472-3.072 19.712-4.864 29.696-5.888-3.84 24.32-11.264 40.704-25.344 59.392" fill="#C2CCD2" /><path d="M782.848 779.008c0.256-3.584 0.256-7.168 0.256-10.752 0-14.336-1.536-28.416-4.608-42.752 9.472-3.072 19.712-4.864 29.696-5.888-3.84 24.32-11.264 40.704-25.344 59.392M728.576 651.264c-16.64 10.24-33.792 14.08-50.688 14.08-27.136 0-54.528-9.984-81.408-19.968 4.864-7.68 9.984-14.848 16.128-21.504h1.536c17.408 0 45.312 12.8 59.392 20.736l0.768-0.768c-40.448-48.128-144.64-56.064-212.224-56.064-6.656 0-13.056 0-18.944 0.256 25.856-6.656 55.04-9.984 84.736-9.984 74.496 0 153.856 22.272 200.704 73.216" fill="#C2CCD2" /><path d="M728.576 651.264c-16.64 10.24-33.792 14.08-50.688 14.08-27.136 0-54.528-9.984-81.408-19.968 4.864-7.68 9.984-14.848 16.128-21.504h1.536c17.408 0 45.312 12.8 59.392 20.736l0.768-0.768c-40.448-48.128-144.64-56.064-212.224-56.064-6.656 0-13.056 0-18.944 0.256 25.856-6.656 55.04-9.984 84.736-9.984 74.496 0 153.856 22.272 200.704 73.216M768.512 793.6c-18.432 15.616-40.192 23.808-64 26.624 14.336-34.816 29.184-72.704 65.024-89.856 1.792 10.24 3.072 20.48 3.072 30.976 0 10.752-1.28 21.76-4.096 32.256" fill="#C2CCD2" /><path d="M768.512 793.6c-18.432 15.616-40.192 23.808-64 26.624 14.336-34.816 29.184-72.704 65.024-89.856 1.792 10.24 3.072 20.48 3.072 30.976 0 10.752-1.28 21.76-4.096 32.256M674.56 557.312l20.736-7.168 15.616 17.664-1.792-23.296 20.224-8.704-22.016-7.168-3.328-23.04-11.52 18.688-22.016-5.632 14.592 18.944z" fill="#C2CCD2" /><path d="M564.48 573.952l14.336-7.168 12.032 10.752-2.304-15.872 13.824-7.936-15.872-2.816-3.328-15.616-7.424 14.336-16.128-1.792 11.264 11.52zM402.944 605.696l9.472-4.608 7.68 6.912-1.28-10.24 8.96-5.376-10.496-1.792-2.048-10.24-4.864 9.216-10.496-1.024 7.168 7.68z" fill="#FFFFFF" /><path d="M760.576 748.544v-1.792l-13.312 22.272 3.84-19.712-1.024-0.512c-19.456 23.808-26.88 40.704-33.024 61.696l-0.256 1.024 1.024-0.256c22.016-7.68 33.28-16.384 37.888-19.968 3.328-7.168 4.864-21.504 4.864-38.912v-3.84M716.032 696.832c-21.248 4.352-46.336 6.912-69.12 6.912-3.328 0-6.912 0-9.984-0.256l48.896-14.592v-1.024c-32.256-1.536-57.344-2.048-88.832-16.896l-0.512-0.256-0.256 0.512c-4.608 8.448-7.424 20.224-7.424 32.256 0 6.912 0.768 13.568 2.816 19.968v0.256H595.2c14.08 0 72.192-1.536 121.088-26.112l-0.256-0.768zM726.784 736.512c-24.576 18.432-43.264 33.28-79.616 39.936 33.792-17.408 56.32-29.696 77.568-51.2l-0.768-0.768c-37.632 22.016-86.784 31.232-121.344 32.768h-1.024l0.512 0.768c28.416 45.056 64.512 49.152 76.288 49.152 2.56 0 3.84-0.256 3.84-0.256h0.256l0.256-0.256c15.36-24.064 25.088-47.36 44.8-69.632l-0.768-0.512z" fill="#0B77BD" /><path d="M790.528 650.496c-3.328 3.584-6.4 6.656-9.472 9.472-3.584-7.68-7.68-14.848-12.544-21.76 2.56-3.072 4.864-6.144 7.168-9.472 6.144 6.912 11.264 14.848 14.848 21.76m12.8 47.872c-3.84 0.512-7.424 1.024-10.752 1.792-0.768-5.632-1.792-11.264-3.328-16.64 3.84-3.072 7.424-6.4 11.008-9.984 2.304 8.192 3.072 15.872 3.072 24.832m-12.032 51.2v-1.792c1.536-7.936 2.56-15.616 2.816-23.552 2.048-0.512 4.096-1.024 6.4-1.28-2.56 9.472-5.376 18.176-9.216 26.624M701.44 586.24c-1.792-1.024-3.584-1.792-5.376-2.56 29.184 8.704 48.896 19.968 59.904 28.416-1.792 2.56-3.584 4.864-5.632 7.168-13.568-13.824-29.952-25.344-48.896-33.024" fill="#FFFFFF" /></svg>